<svg xmlns="http://www.w3.org/2000/svg" xmlns:xlink="http://www.w3.org/1999/xlink" width="500" zoomAndPan="magnify" viewBox="0 0 375 374.999991" height="500" preserveAspectRatio="xMidYMid meet" version="1.0"><defs><g/><clipPath id="id1"><path d="M 64.058594 60.417969 L 310.808594 60.417969 L 310.808594 314.667969 L 64.058594 314.667969 Z M 64.058594 60.417969 " clip-rule="nonzero"/></clipPath></defs><g clip-path="url(#id1)"><path fill="#fcfeff" d="M 95.027344 249.039062 C 95.371094 249.601562 95.847656 250.375 96.238281 251.011719 C 96.628906 251.652344 96.953125 252.136719 96.925781 252.148438 C 96.914062 252.152344 96.820312 252.035156 96.671875 251.84375 C 96.523438 251.652344 96.324219 251.382812 96.109375 251.074219 C 95.675781 250.453125 95.152344 249.707031 94.769531 249.160156 L 93.84375 247.316406 C 94.242188 247.898438 94.632812 248.46875 95.027344 249.039062 Z M 137.84375 84.195312 C 139.84375 83.140625 141.886719 82.167969 143.941406 81.226562 C 144.980469 80.773438 146.011719 80.3125 147.058594 79.882812 C 148.109375 79.460938 149.148438 79.019531 150.210938 78.628906 C 149.167969 79.121094 148.152344 79.664062 147.128906 80.183594 C 146.613281 80.441406 146.113281 80.726562 145.609375 80.996094 C 145.105469 81.273438 144.597656 81.542969 144.101562 81.824219 C 142.109375 82.964844 140.136719 84.125 138.226562 85.375 C 141.140625 83.828125 143.773438 82.578125 146.152344 81.566406 C 146.449219 81.4375 146.742188 81.3125 147.027344 81.1875 C 147.320312 81.066406 147.605469 80.953125 147.882812 80.839844 C 148.445312 80.613281 148.992188 80.390625 149.515625 80.179688 C 150.578125 79.777344 151.570312 79.410156 152.5 79.074219 C 156.238281 77.753906 159.003906 77.027344 161.117188 76.511719 C 163.234375 76 164.714844 75.757812 165.945312 75.550781 C 167.179688 75.386719 168.164062 75.253906 169.316406 75.128906 C 174.011719 74.597656 178.5625 74.378906 183.007812 74.421875 C 187.453125 74.476562 191.792969 74.800781 196.066406 75.351562 C 197.195312 75.5 197.648438 75.722656 196.714844 75.691406 C 195.992188 75.667969 195.289062 75.648438 194.605469 75.625 C 193.921875 75.625 193.253906 75.621094 192.609375 75.613281 C 191.960938 75.605469 191.332031 75.617188 190.722656 75.632812 C 190.113281 75.648438 189.523438 75.660156 188.949219 75.667969 C 187.804688 75.726562 186.730469 75.765625 185.726562 75.832031 C 184.722656 75.910156 183.785156 75.96875 182.910156 76.050781 C 182.042969 76.140625 181.234375 76.226562 180.488281 76.304688 C 179.746094 76.402344 179.0625 76.488281 178.4375 76.574219 C 178.125 76.617188 177.824219 76.652344 177.542969 76.695312 C 177.257812 76.742188 176.988281 76.789062 176.734375 76.828125 C 176.222656 76.917969 175.761719 76.996094 175.351562 77.0625 C 172.09375 77.691406 172.042969 77.839844 173.457031 77.730469 C 173.808594 77.707031 174.253906 77.664062 174.765625 77.613281 C 175.277344 77.570312 175.851562 77.523438 176.464844 77.46875 C 177.691406 77.347656 179.082031 77.273438 180.402344 77.1875 C 181.0625 77.15625 181.707031 77.128906 182.3125 77.109375 C 182.917969 77.082031 183.480469 77.066406 183.972656 77.070312 C 184.957031 77.066406 185.664062 77.078125 185.878906 77.121094 C 186.414062 77.21875 187.082031 77.335938 187.851562 77.433594 C 188.242188 77.484375 188.652344 77.539062 189.078125 77.589844 C 189.515625 77.648438 189.96875 77.710938 190.433594 77.773438 C 190.90625 77.832031 191.394531 77.894531 191.894531 77.953125 C 192.398438 78.023438 192.910156 78.097656 193.433594 78.171875 C 194.484375 78.304688 195.574219 78.488281 196.671875 78.664062 C 197.21875 78.742188 197.769531 78.84375 198.316406 78.945312 C 198.863281 79.046875 199.410156 79.148438 199.953125 79.25 C 201.03125 79.472656 202.089844 79.695312 203.097656 79.929688 C 204.101562 80.183594 205.058594 80.40625 205.929688 80.664062 C 206.800781 80.921875 207.59375 81.160156 208.273438 81.398438 C 209.945312 82.011719 210.039062 82.359375 208.789062 82.496094 C 208.476562 82.535156 208.085938 82.542969 207.605469 82.566406 C 207.128906 82.585938 206.570312 82.59375 205.933594 82.59375 C 205.300781 82.585938 204.585938 82.597656 203.796875 82.597656 C 203.402344 82.59375 202.992188 82.589844 202.5625 82.589844 C 202.128906 82.59375 201.679688 82.597656 201.214844 82.605469 C 194.492188 81.453125 187.675781 80.925781 180.578125 81.105469 C 180.046875 81.125 179.210938 81.179688 178.292969 81.246094 C 177.375 81.335938 176.378906 81.433594 175.519531 81.519531 C 174.664062 81.773438 174.460938 81.914062 172.667969 82.328125 C 172.472656 82.375 172.074219 82.460938 171.546875 82.566406 C 171.019531 82.679688 170.359375 82.800781 169.648438 82.96875 C 168.941406 83.132812 168.171875 83.292969 167.429688 83.476562 C 166.6875 83.664062 165.960938 83.847656 165.328125 84.007812 C 161.347656 84.660156 157.359375 85.566406 153.417969 86.695312 C 149.472656 87.824219 145.574219 89.183594 141.78125 90.773438 C 137.988281 92.351562 134.292969 94.144531 130.738281 96.101562 C 127.183594 98.066406 123.78125 100.214844 120.550781 102.472656 C 119.675781 103.089844 120.492188 102.246094 121.542969 101.230469 C 122.078125 100.730469 122.667969 100.183594 123.125 99.742188 C 123.585938 99.308594 123.917969 98.988281 123.921875 98.917969 C 123.929688 98.589844 124.199219 98.050781 123.992188 97.886719 C 123.886719 97.804688 123.660156 97.8125 123.222656 97.988281 C 123 98.078125 122.726562 98.207031 122.386719 98.390625 C 122.050781 98.574219 121.652344 98.816406 121.179688 99.121094 C 120.914062 99.289062 120.53125 99.550781 120.050781 99.890625 C 119.578125 100.242188 119.011719 100.675781 118.359375 101.179688 C 118.195312 101.304688 118.027344 101.433594 117.855469 101.570312 C 117.683594 101.707031 117.507812 101.851562 117.328125 102 C 116.96875 102.292969 116.59375 102.601562 116.199219 102.925781 C 115.804688 103.246094 115.40625 103.601562 114.988281 103.964844 C 114.574219 104.328125 114.144531 104.707031 113.703125 105.09375 C 111.964844 106.683594 110.058594 108.496094 108.171875 110.496094 C 106.289062 112.492188 104.398438 114.644531 102.636719 116.84375 C 101.910156 117.773438 101.238281 118.625 100.640625 119.429688 C 100.050781 120.238281 99.5 120.96875 99.023438 121.660156 C 98.550781 122.351562 98.121094 122.980469 97.726562 123.554688 C 97.351562 124.140625 97.011719 124.667969 96.703125 125.152344 C 96.550781 125.390625 96.40625 125.621094 96.269531 125.839844 C 96.140625 126.058594 96.015625 126.269531 95.898438 126.46875 C 95.664062 126.871094 95.457031 127.226562 95.269531 127.554688 C 94.894531 128.203125 94.628906 128.726562 94.40625 129.175781 C 93.964844 130.070312 93.699219 130.65625 93.34375 131.4375 C 92.988281 132.21875 92.5 133.175781 91.660156 134.832031 C 91.5 135.148438 91.339844 135.453125 91.191406 135.757812 C 91.042969 136.0625 90.898438 136.359375 90.757812 136.652344 C 90.480469 137.242188 90.199219 137.800781 89.953125 138.34375 C 89.707031 138.890625 89.472656 139.414062 89.25 139.914062 C 89.136719 140.164062 89.027344 140.410156 88.921875 140.648438 C 88.820312 140.890625 88.722656 141.125 88.625 141.355469 C 87.839844 143.195312 87.277344 144.710938 86.828125 145.929688 C 86.40625 147.160156 86.078125 148.085938 85.878906 148.785156 C 85.675781 149.480469 85.558594 149.9375 85.507812 150.210938 C 85.304688 151.296875 86.144531 149.453125 86.730469 148.382812 C 87.808594 146.492188 88.117188 146.605469 89.324219 144.554688 C 89.617188 144.039062 89.988281 143.398438 90.445312 142.5625 C 90.90625 141.707031 91.460938 140.679688 92.144531 139.414062 C 93.550781 136.871094 95.484375 133.316406 98.648438 128.539062 L 98.53125 128.753906 C 101.261719 124.542969 103.65625 121.53125 105.382812 119.503906 C 106.257812 118.496094 106.957031 117.726562 107.480469 117.191406 C 108.007812 116.664062 108.347656 116.359375 108.503906 116.28125 C 108.65625 116.199219 108.621094 116.34375 108.398438 116.710938 C 108.179688 117.082031 107.757812 117.660156 107.1875 118.492188 C 106.890625 118.90625 106.558594 119.375 106.183594 119.902344 C 105.8125 120.4375 105.398438 121.027344 104.945312 121.675781 C 104.488281 122.328125 104.015625 123.054688 103.484375 123.828125 C 102.960938 124.605469 102.425781 125.460938 101.828125 126.367188 C 98.773438 131.210938 96.214844 136.0625 94.074219 141.007812 C 92.992188 143.476562 92.035156 145.976562 91.152344 148.5 C 90.941406 149.136719 90.707031 149.761719 90.507812 150.402344 C 90.304688 151.042969 90.105469 151.679688 89.898438 152.320312 C 89.703125 152.960938 89.523438 153.609375 89.332031 154.253906 C 89.140625 154.898438 88.96875 155.550781 88.796875 156.203125 C 88.972656 155.8125 89.128906 155.484375 89.277344 155.175781 C 89.433594 154.871094 89.582031 154.578125 89.742188 154.269531 C 90.0625 153.648438 90.390625 152.917969 90.921875 151.757812 C 91.1875 151.175781 91.464844 150.476562 91.851562 149.640625 C 92.035156 149.21875 92.234375 148.761719 92.453125 148.265625 C 92.667969 147.761719 92.929688 147.226562 93.191406 146.636719 C 94.265625 144.292969 95.71875 141.199219 97.960938 137.167969 C 99.632812 134.195312 101.082031 131.976562 102.304688 130.246094 C 102.917969 129.378906 103.488281 128.644531 103.988281 127.984375 C 104.503906 127.335938 104.972656 126.777344 105.398438 126.273438 C 105.816406 125.769531 106.226562 125.347656 106.597656 124.945312 C 106.972656 124.550781 107.3125 124.179688 107.664062 123.832031 C 108.015625 123.484375 108.359375 123.144531 108.710938 122.796875 C 108.890625 122.617188 109.066406 122.4375 109.25 122.25 C 109.441406 122.066406 109.632812 121.875 109.832031 121.679688 C 110.039062 121.472656 109.910156 121.691406 109.566406 122.175781 C 109.226562 122.660156 108.695312 123.429688 108.070312 124.308594 C 106.851562 126.09375 105.324219 128.371094 104.457031 129.886719 C 102.808594 132.3125 100.988281 135.296875 99.472656 138.074219 C 98.707031 139.457031 98.03125 140.792969 97.4375 141.953125 C 96.867188 143.121094 96.367188 144.105469 96.03125 144.828125 C 94.984375 146.921875 94.054688 149.066406 93.171875 151.167969 C 92.753906 152.226562 92.3125 153.265625 91.941406 154.304688 C 91.75 154.820312 91.558594 155.332031 91.367188 155.835938 C 91.191406 156.347656 91.015625 156.851562 90.84375 157.347656 C 89.464844 161.328125 88.464844 164.941406 87.761719 167.664062 C 87.527344 168.503906 87.394531 169.003906 87.28125 169.238281 C 87.171875 169.476562 87.101562 169.457031 87.058594 169.261719 C 87.015625 169.070312 87 168.710938 87 168.269531 C 87.003906 167.828125 87.035156 167.308594 87.0625 166.800781 C 87.089844 166.277344 87.140625 165.574219 87.253906 164.761719 C 87.363281 163.949219 87.472656 163.015625 87.652344 162.042969 C 87.734375 161.554688 87.820312 161.054688 87.90625 160.550781 C 87.992188 160.042969 88.105469 159.539062 88.203125 159.035156 C 88.300781 158.53125 88.402344 158.03125 88.5 157.539062 C 88.605469 157.054688 88.710938 156.578125 88.8125 156.121094 C 86.707031 163.554688 85.398438 171.460938 84.996094 179.300781 C 84.574219 187.140625 84.996094 194.902344 85.996094 202.101562 C 86.5625 206.203125 87.355469 210.402344 88.40625 214.511719 C 89.445312 218.621094 90.703125 222.648438 92.117188 226.441406 C 93.539062 230.230469 95.101562 233.78125 96.675781 236.96875 C 98.25 240.15625 99.832031 242.980469 101.246094 245.347656 C 103.632812 249.285156 104.710938 250.976562 105.390625 252.242188 C 105.742188 252.867188 106.003906 253.382812 106.335938 253.984375 C 106.675781 254.582031 107.09375 255.257812 107.746094 256.222656 C 109.011719 258.066406 111.445312 261.0625 111.554688 261.382812 C 111.601562 261.546875 111.019531 261.082031 109.457031 259.421875 C 109.261719 259.214844 109.042969 258.992188 108.820312 258.746094 C 108.597656 258.496094 108.355469 258.226562 108.097656 257.9375 C 107.84375 257.648438 107.566406 257.339844 107.277344 257.011719 C 106.984375 256.679688 106.6875 256.316406 106.367188 255.9375 C 105.074219 254.417969 103.554688 252.480469 101.789062 250.042969 C 101.273438 249.308594 100.832031 248.730469 100.492188 248.261719 C 100.152344 247.792969 99.886719 247.453125 99.683594 247.222656 C 99.28125 246.757812 99.140625 246.722656 99.167969 246.972656 C 99.230469 247.464844 99.96875 249.09375 100.78125 250.5625 C 101.570312 252.066406 103.425781 254.839844 102.871094 254.269531 C 102.730469 254.128906 102.433594 253.785156 101.953125 253.140625 C 101.714844 252.816406 101.421875 252.425781 101.070312 251.953125 C 100.722656 251.484375 100.339844 250.914062 99.882812 250.261719 C 98.097656 247.640625 95.367188 243.507812 92.109375 236.859375 C 91.902344 236.429688 91.699219 236.011719 91.503906 235.601562 C 91.304688 235.195312 91.128906 234.792969 90.949219 234.402344 C 90.59375 233.621094 90.25 232.890625 89.957031 232.183594 C 89.65625 231.480469 89.363281 230.824219 89.105469 230.199219 C 88.847656 229.570312 88.609375 228.984375 88.386719 228.433594 C 87.9375 227.328125 87.582031 226.359375 87.253906 225.53125 C 86.941406 224.695312 86.679688 223.992188 86.453125 223.394531 C 86.222656 222.800781 86.054688 222.3125 85.902344 221.917969 C 85.75 221.527344 85.628906 221.226562 85.53125 221.003906 C 85.332031 220.550781 85.222656 220.398438 85.160156 220.382812 C 83.835938 220.085938 82.742188 220.546875 81.777344 221.417969 C 81.773438 221.421875 81.785156 221.464844 81.804688 221.539062 C 81.828125 221.617188 81.863281 221.726562 81.90625 221.867188 C 81.992188 222.152344 82.117188 222.550781 82.265625 223.035156 C 82.554688 224 83.003906 225.265625 83.4375 226.535156 C 83.660156 227.164062 83.898438 227.792969 84.117188 228.382812 C 84.332031 228.972656 84.535156 229.519531 84.726562 229.984375 C 84.910156 230.453125 85.0625 230.839844 85.167969 231.113281 C 85.222656 231.25 85.261719 231.355469 85.289062 231.429688 C 85.316406 231.503906 85.328125 231.542969 85.328125 231.542969 C 85.226562 231.550781 84.9375 231.089844 84.582031 230.476562 C 84.40625 230.167969 84.210938 229.824219 84.023438 229.476562 C 83.839844 229.136719 83.65625 228.792969 83.492188 228.484375 C 81.550781 223.429688 79.847656 217.582031 78.878906 213.082031 C 77.207031 205.289062 76.488281 198.234375 76.355469 190.820312 C 76.214844 189.980469 76.117188 189.144531 76 188.300781 C 75.945312 187.878906 75.890625 187.453125 75.832031 187.03125 C 75.789062 186.605469 75.742188 186.175781 75.695312 185.746094 C 75.65625 185.328125 75.613281 184.894531 75.558594 184.359375 C 75.503906 183.816406 75.46875 183.171875 75.402344 182.328125 C 75.667969 178.648438 76.089844 175.125 76.652344 171.664062 C 77.21875 168.199219 77.933594 164.796875 78.828125 161.367188 C 79.722656 157.9375 80.789062 154.472656 82.085938 150.902344 C 83.390625 147.328125 84.925781 143.648438 86.796875 139.808594 C 86.214844 139.546875 85.773438 139.347656 85.335938 139.148438 C 86.652344 136.191406 88.089844 133.289062 89.640625 130.449219 C 91.214844 127.960938 92.726562 125.835938 94.402344 123.582031 C 96.074219 121.328125 97.941406 118.964844 100.355469 116.117188 C 103.207031 112.738281 106.515625 109.253906 110.269531 105.730469 C 112.160156 103.988281 114.148438 102.21875 116.277344 100.488281 C 118.410156 98.761719 120.648438 97.035156 123.027344 95.363281 C 124.921875 94.03125 127.917969 91.9375 131.351562 89.855469 C 134.773438 87.761719 138.632812 85.683594 142.042969 84.09375 C 140.835938 84.476562 139.609375 84.84375 138.40625 85.269531 Z M 182.792969 301.316406 C 187.140625 301.855469 192.132812 302.09375 195.824219 302.148438 C 196.511719 302.160156 197.15625 302.167969 197.765625 302.179688 C 198.367188 302.179688 198.929688 302.179688 199.449219 302.179688 C 200.476562 302.1875 201.347656 302.191406 202.066406 302.195312 C 202.769531 302.207031 203.304688 302.234375 203.664062 302.269531 C 204.023438 302.300781 204.214844 302.351562 204.226562 302.425781 C 204.242188 302.496094 204.082031 302.585938 203.746094 302.695312 C 203.410156 302.800781 202.894531 302.917969 202.203125 303.050781 C 201.507812 303.1875 200.636719 303.339844 199.578125 303.46875 C 199.042969 303.539062 198.46875 303.609375 197.851562 303.6875 C 197.230469 303.746094 196.5625 303.808594 195.851562 303.871094 C 191.46875 304.238281 187.023438 304.378906 182.542969 304.242188 C 178.058594 304.105469 173.539062 303.714844 169.003906 303.050781 C 167.867188 302.898438 166.738281 302.6875 165.601562 302.5 C 164.464844 302.304688 163.335938 302.070312 162.195312 301.851562 C 161.066406 301.59375 159.925781 301.359375 158.796875 301.082031 C 157.664062 300.800781 156.527344 300.53125 155.398438 300.210938 C 150.875 298.976562 146.359375 297.476562 141.910156 295.648438 C 140.800781 295.191406 138.402344 294.128906 135.667969 292.695312 C 132.921875 291.277344 129.839844 289.5 127.253906 287.859375 C 126.863281 287.605469 126.214844 287.167969 125.464844 286.65625 C 125.085938 286.402344 124.691406 286.121094 124.292969 285.828125 C 123.894531 285.535156 123.488281 285.242188 123.09375 284.957031 C 122.308594 284.386719 121.605469 283.8125 121.09375 283.414062 C 120.582031 283.007812 120.277344 282.753906 120.328125 282.765625 C 122.882812 283.421875 125.945312 284.421875 129.835938 285.710938 C 129.878906 285.722656 130.496094 286.097656 131.476562 286.703125 C 132.476562 287.277344 133.832031 288.097656 135.386719 288.941406 C 136.15625 289.375 136.980469 289.804688 137.816406 290.238281 C 138.234375 290.457031 138.648438 290.683594 139.074219 290.890625 C 139.503906 291.101562 139.929688 291.3125 140.347656 291.519531 C 141.1875 291.945312 142.027344 292.328125 142.820312 292.695312 C 143.21875 292.875 143.605469 293.054688 143.976562 293.226562 C 144.351562 293.386719 144.714844 293.546875 145.058594 293.695312 C 143.933594 292.9375 142.84375 292.121094 141.753906 291.335938 C 141.21875 290.925781 140.683594 290.515625 140.148438 290.105469 C 139.882812 289.902344 139.613281 289.703125 139.351562 289.496094 L 138.574219 288.863281 C 137.660156 288.175781 133.789062 285.691406 136.539062 287.023438 C 137.355469 287.425781 138.082031 287.738281 138.710938 288.011719 C 139.34375 288.273438 139.871094 288.507812 140.320312 288.660156 C 141.222656 288.988281 141.761719 289.136719 142.015625 289.140625 C 142.519531 289.148438 141.863281 288.578125 140.578125 287.699219 C 139.9375 287.246094 139.152344 286.703125 138.269531 286.117188 C 137.832031 285.8125 137.375 285.492188 136.90625 285.167969 C 136.433594 284.835938 135.941406 284.507812 135.457031 284.152344 C 134.972656 283.800781 134.480469 283.445312 133.984375 283.085938 C 133.492188 282.730469 133.011719 282.355469 132.535156 281.992188 C 131.578125 281.277344 130.683594 280.53125 129.867188 279.863281 C 132.222656 281.53125 134.488281 282.960938 136.597656 284.257812 C 137.664062 284.890625 138.683594 285.507812 139.683594 286.0625 C 140.179688 286.339844 140.664062 286.625 141.144531 286.882812 C 141.628906 287.140625 142.101562 287.394531 142.5625 287.644531 C 146.269531 289.617188 149.421875 291.066406 152.046875 292.207031 C 153.351562 292.796875 154.542969 293.261719 155.59375 293.714844 C 156.644531 294.140625 157.578125 294.519531 158.410156 294.855469 C 159.234375 295.179688 159.941406 295.464844 160.550781 295.722656 C 161.160156 295.980469 161.675781 296.183594 162.101562 296.378906 C 163.800781 297.15625 164.117188 297.519531 164.003906 297.804688 C 163.894531 298.089844 163.355469 298.269531 163.398438 298.589844 C 169.78125 300.050781 176.277344 300.953125 182.792969 301.316406 Z M 122.851562 277.25 C 123.800781 278.113281 124.667969 278.832031 125.394531 279.453125 C 125.753906 279.765625 126.089844 280.046875 126.390625 280.292969 C 126.691406 280.542969 126.957031 280.765625 127.191406 280.960938 C 128.109375 281.746094 128.460938 282.078125 128.125 281.96875 C 127.953125 281.914062 127.621094 281.734375 127.113281 281.441406 C 126.855469 281.285156 126.554688 281.109375 126.210938 280.902344 C 125.863281 280.695312 125.46875 280.457031 125.039062 280.171875 C 124.175781 279.609375 123.117188 278.921875 121.898438 278.054688 C 121.589844 277.84375 121.269531 277.617188 120.941406 277.386719 C 120.613281 277.148438 120.277344 276.898438 119.925781 276.644531 C 119.578125 276.386719 119.214844 276.117188 118.839844 275.84375 C 118.472656 275.558594 118.089844 275.265625 117.695312 274.964844 C 116.378906 274.171875 115.09375 273.324219 113.804688 272.476562 C 111.578125 270.433594 109.449219 268.289062 107.386719 266.078125 C 110.925781 269.574219 114.714844 272.796875 118.644531 275.796875 C 119.929688 276.226562 121.261719 276.734375 122.851562 277.25 Z M 94.066406 219.503906 C 93.878906 218.933594 93.691406 218.347656 93.5 217.757812 C 93.324219 217.160156 93.144531 216.554688 92.960938 215.941406 C 92.773438 215.332031 92.617188 214.707031 92.449219 214.082031 C 92.285156 213.457031 92.105469 212.832031 91.960938 212.199219 C 91.320312 209.683594 90.832031 207.140625 90.410156 204.8125 C 90.3125 204.230469 90.214844 203.664062 90.121094 203.109375 C 90.023438 202.558594 89.957031 202.019531 89.875 201.503906 C 89.800781 200.988281 89.71875 200.492188 89.652344 200.015625 C 89.589844 199.542969 89.527344 199.09375 89.472656 198.667969 C 89.410156 198.246094 89.355469 197.851562 89.300781 197.484375 C 89.257812 197.117188 89.210938 196.78125 89.167969 196.476562 C 89.078125 195.871094 88.992188 195.402344 88.914062 195.09375 C 88.757812 194.402344 88.496094 192.507812 88.320312 190.363281 C 88.265625 189.828125 88.234375 189.277344 88.203125 188.726562 C 88.164062 188.175781 88.128906 187.625 88.09375 187.089844 C 88.046875 186.023438 88 185.015625 87.964844 184.1875 C 87.914062 182.542969 87.828125 181.632812 87.675781 182.453125 C 87.640625 182.660156 87.597656 182.972656 87.550781 183.410156 C 87.5 183.847656 87.441406 184.40625 87.410156 185.109375 C 87.328125 186.507812 87.238281 188.472656 87.277344 191.113281 C 87.285156 191.660156 87.253906 191.578125 87.195312 191.09375 C 87.140625 190.609375 87.050781 189.722656 86.996094 188.664062 C 86.964844 188.132812 86.929688 187.558594 86.894531 186.972656 C 86.875 186.386719 86.855469 185.785156 86.835938 185.199219 C 86.824219 184.90625 86.816406 184.617188 86.804688 184.335938 C 86.804688 184.054688 86.800781 183.78125 86.796875 183.519531 C 86.789062 182.996094 86.785156 182.511719 86.777344 182.105469 C 86.957031 179.894531 87.214844 177.046875 87.59375 174.601562 C 87.636719 174.296875 87.679688 173.996094 87.71875 173.703125 C 87.769531 173.410156 87.816406 173.128906 87.863281 172.855469 C 87.957031 172.3125 88.042969 171.804688 88.125 171.351562 C 88.292969 170.449219 88.453125 169.777344 88.542969 169.445312 C 89.148438 167.335938 89.734375 165.347656 90.902344 161.492188 C 91.507812 159.574219 92.238281 157.179688 93.359375 154.132812 C 93.628906 153.367188 93.949219 152.570312 94.265625 151.71875 C 94.589844 150.871094 94.964844 149.988281 95.335938 149.046875 C 96.136719 147.183594 97.019531 145.117188 98.128906 142.882812 C 98.273438 142.585938 98.40625 142.304688 98.542969 142.039062 C 98.683594 141.777344 98.8125 141.53125 98.941406 141.292969 C 99.191406 140.824219 99.417969 140.40625 99.625 140.039062 C 100.054688 139.304688 100.402344 138.765625 100.6875 138.34375 C 100.964844 137.925781 101.195312 137.636719 101.386719 137.417969 C 101.578125 137.199219 101.730469 137.046875 101.867188 136.90625 C 102.191406 136.574219 102.519531 136.191406 102.894531 135.730469 C 103.277344 135.273438 103.691406 134.730469 104.160156 134.066406 C 104.648438 133.410156 105.191406 132.632812 105.832031 131.707031 C 106.160156 131.25 106.511719 130.753906 106.882812 130.214844 C 107.253906 129.675781 107.679688 129.109375 108.117188 128.488281 C 109.898438 126.027344 112.226562 122.863281 115.621094 118.996094 C 119.011719 115.140625 123.457031 110.535156 129.6875 105.601562 C 130.175781 105.210938 130.652344 104.832031 131.140625 104.46875 C 131.621094 104.105469 132.097656 103.742188 132.570312 103.386719 C 133.535156 102.695312 134.472656 101.992188 135.457031 101.335938 C 136.421875 100.65625 137.425781 100.015625 138.460938 99.34375 C 138.980469 99.015625 139.515625 98.695312 140.0625 98.363281 C 140.601562 98.023438 141.167969 97.699219 141.75 97.371094 C 142.035156 97.207031 142.386719 97.007812 142.777344 96.789062 C 143.167969 96.574219 143.613281 96.347656 144.074219 96.101562 C 144.996094 95.605469 146.03125 95.109375 146.996094 94.636719 C 147.96875 94.175781 148.886719 93.773438 149.566406 93.460938 C 150.257812 93.171875 150.722656 92.984375 150.789062 92.964844 C 151.167969 92.867188 151.652344 92.710938 152.210938 92.550781 C 152.769531 92.382812 153.390625 92.199219 154.027344 92.011719 C 154.667969 91.820312 155.332031 91.652344 155.957031 91.480469 C 156.269531 91.394531 156.570312 91.3125 156.863281 91.238281 C 157.15625 91.171875 157.429688 91.109375 157.691406 91.050781 C 158.71875 90.820312 159.410156 90.703125 159.378906 90.832031 C 159.34375 90.953125 158.585938 91.3125 156.71875 92.0625 C 156.078125 92.332031 155.484375 92.585938 154.929688 92.820312 C 154.378906 93.058594 153.878906 93.300781 153.414062 93.511719 C 152.480469 93.933594 151.726562 94.332031 151.105469 94.648438 C 150.796875 94.808594 150.523438 94.953125 150.285156 95.082031 C 150.046875 95.21875 149.84375 95.339844 149.671875 95.445312 C 149.324219 95.65625 149.101562 95.808594 148.984375 95.910156 C 148.753906 96.113281 148.949219 96.113281 149.441406 95.976562 C 149.6875 95.90625 150.007812 95.800781 150.382812 95.667969 C 150.769531 95.539062 151.207031 95.390625 151.683594 95.226562 C 152.167969 95.0625 152.683594 94.863281 153.238281 94.683594 C 153.792969 94.5 154.371094 94.304688 154.957031 94.109375 C 155.546875 93.914062 156.152344 93.734375 156.746094 93.546875 C 157.042969 93.457031 157.339844 93.359375 157.632812 93.277344 C 157.925781 93.195312 158.214844 93.113281 158.5 93.035156 C 159.070312 92.878906 159.609375 92.71875 160.113281 92.59375 C 160.621094 92.472656 161.085938 92.363281 161.492188 92.273438 C 162.308594 92.085938 162.898438 92.007812 163.117188 92.023438 C 163.710938 91.832031 164.265625 91.652344 164.785156 91.484375 C 165.304688 91.324219 165.789062 91.179688 166.238281 91.042969 C 167.132812 90.753906 167.910156 90.554688 168.589844 90.351562 C 169.265625 90.144531 169.855469 89.988281 170.390625 89.839844 C 170.925781 89.6875 171.410156 89.554688 171.878906 89.417969 C 172.996094 89.132812 174.0625 88.828125 175.128906 88.585938 C 175.660156 88.460938 176.191406 88.328125 176.722656 88.210938 C 177.257812 88.09375 177.789062 87.980469 178.328125 87.867188 C 181.925781 87.496094 185.316406 87.328125 189.21875 87.316406 C 192.042969 87.320312 195.546875 87.429688 198.726562 87.71875 C 198.960938 87.699219 199.195312 87.679688 199.425781 87.660156 C 199.65625 87.648438 199.886719 87.632812 200.117188 87.621094 C 200.589844 87.597656 201.070312 87.574219 201.589844 87.550781 C 201.96875 87.527344 202.40625 87.535156 202.953125 87.539062 C 203.5 87.546875 204.160156 87.535156 204.976562 87.5625 C 207.5 87.976562 209.941406 88.503906 212.292969 89.066406 C 214.640625 89.636719 216.882812 90.289062 219.007812 90.957031 C 223.25 92.328125 226.992188 93.855469 230.09375 95.320312 C 230.964844 95.730469 231.820312 96.164062 232.6875 96.578125 L 233.972656 97.234375 C 234.402344 97.449219 234.832031 97.664062 235.257812 97.894531 C 236.113281 98.351562 236.984375 98.792969 237.84375 99.277344 C 238.273438 99.519531 238.714844 99.75 239.152344 99.996094 C 239.585938 100.242188 240.023438 100.492188 240.46875 100.746094 C 240.691406 100.871094 240.910156 100.996094 241.136719 101.121094 C 241.355469 101.253906 241.578125 101.386719 241.800781 101.519531 C 242.25 101.78125 242.703125 102.046875 243.160156 102.316406 C 243.613281 102.59375 244.070312 102.875 244.535156 103.15625 C 244.765625 103.300781 245 103.441406 245.234375 103.585938 C 245.464844 103.734375 245.699219 103.882812 245.933594 104.03125 C 247.828125 105.214844 249.777344 106.535156 251.835938 107.988281 C 256.863281 111.566406 261.539062 115.351562 265.289062 119.464844 C 271.96875 126.757812 277.164062 134.890625 281.191406 143.492188 C 282.75 146.828125 283.953125 149.878906 285.097656 153.226562 C 287.339844 159.800781 288.753906 166.105469 289.558594 171.03125 C 289.613281 171.339844 289.667969 171.640625 289.71875 171.9375 C 289.761719 172.234375 289.808594 172.527344 289.847656 172.8125 C 289.9375 173.382812 290.023438 173.925781 290.105469 174.445312 C 290.238281 175.492188 290.386719 176.425781 290.496094 177.246094 C 290.597656 178.0625 290.699219 178.761719 290.796875 179.324219 C 290.882812 179.886719 290.960938 180.316406 291.039062 180.589844 C 291.15625 181.011719 291.277344 181.464844 291.398438 181.933594 C 291.507812 182.40625 291.617188 182.886719 291.726562 183.359375 C 291.835938 183.832031 291.957031 184.292969 292.054688 184.722656 C 292.148438 185.152344 292.246094 185.550781 292.34375 185.890625 C 292.730469 187.25 293.105469 187.707031 293.433594 185.710938 C 293.980469 182.421875 294.371094 178.777344 294.464844 174.582031 C 294.472656 174.320312 294.476562 174.054688 294.484375 173.789062 C 294.484375 173.523438 294.480469 173.253906 294.480469 172.984375 C 294.480469 172.441406 294.472656 171.890625 294.472656 171.332031 C 294.457031 170.773438 294.433594 170.207031 294.414062 169.628906 C 294.390625 169.050781 294.371094 168.460938 294.324219 167.863281 C 294.285156 167.265625 294.242188 166.65625 294.199219 166.042969 C 294.136719 165.421875 294.078125 164.796875 294.011719 164.160156 C 293.957031 163.519531 293.871094 162.875 293.785156 162.214844 C 293.691406 161.558594 293.621094 160.886719 293.503906 160.207031 C 293.101562 157.488281 292.507812 154.601562 291.734375 151.535156 C 290.945312 148.46875 289.949219 145.226562 288.671875 141.816406 C 287.394531 138.40625 285.835938 134.832031 283.917969 131.117188 C 281.984375 127.417969 279.703125 123.570312 276.964844 119.65625 C 275.464844 117.503906 273.9375 115.507812 272.445312 113.617188 C 271.679688 112.6875 270.949219 111.757812 270.191406 110.890625 C 269.816406 110.449219 269.449219 110.015625 269.082031 109.585938 C 268.707031 109.164062 268.335938 108.75 267.96875 108.335938 C 265.03125 105.042969 262.175781 102.214844 259.492188 99.730469 C 256.8125 97.25 254.304688 95.117188 251.992188 93.253906 C 249.675781 91.398438 247.574219 89.789062 245.679688 88.386719 C 244.738281 87.695312 243.84375 87.042969 242.992188 86.414062 C 242.140625 85.816406 241.351562 85.234375 240.609375 84.703125 C 239.863281 84.175781 239.171875 83.671875 238.527344 83.199219 C 237.878906 82.738281 237.277344 82.300781 236.726562 81.878906 C 236.175781 81.453125 235.660156 81.085938 235.191406 80.714844 C 234.722656 80.347656 234.296875 79.992188 233.90625 79.664062 C 233.117188 79.015625 232.484375 78.421875 231.964844 77.878906 C 231.582031 77.476562 231.460938 77.191406 231.582031 76.976562 C 231.703125 76.769531 232.066406 76.636719 232.625 76.601562 C 233.191406 76.5625 233.960938 76.601562 234.90625 76.710938 C 235.851562 76.824219 236.960938 77.035156 238.21875 77.296875 C 240.71875 77.859375 243.765625 78.730469 247.054688 79.902344 C 250.34375 81.066406 253.871094 82.546875 257.34375 84.214844 C 258.144531 84.601562 258.996094 85.039062 259.746094 85.390625 C 260.492188 85.746094 261.117188 86.058594 261.480469 86.167969 C 261.84375 86.28125 261.9375 86.207031 261.59375 85.839844 C 261.421875 85.65625 261.140625 85.398438 260.730469 85.050781 C 260.316406 84.710938 259.765625 84.289062 259.0625 83.769531 C 256.882812 82.191406 255.292969 81.035156 254.152344 80.210938 C 253.613281 79.804688 253.207031 79.484375 252.917969 79.246094 C 252.632812 79.007812 252.472656 78.832031 252.417969 78.722656 C 252.207031 78.277344 253.761719 78.792969 256.097656 79.851562 C 256.386719 79.976562 256.929688 80.257812 257.578125 80.617188 C 258.226562 80.96875 258.996094 81.375 259.714844 81.792969 C 260.429688 82.203125 261.117188 82.59375 261.621094 82.871094 C 262.128906 83.144531 262.449219 83.324219 262.460938 83.28125 C 262.46875 83.238281 262.167969 82.976562 261.386719 82.433594 C 260.996094 82.164062 260.492188 81.816406 259.851562 81.382812 C 259.210938 80.953125 258.417969 80.460938 257.480469 79.867188 C 257.011719 79.566406 256.492188 79.265625 255.933594 78.933594 C 255.375 78.605469 254.777344 78.246094 254.128906 77.875 C 253.476562 77.511719 252.777344 77.125 252.035156 76.710938 C 251.289062 76.300781 250.484375 75.894531 249.632812 75.445312 C 246.21875 73.699219 241.933594 71.675781 236.5 69.664062 C 235.882812 69.4375 234.882812 69.039062 233.671875 68.609375 C 233.066406 68.390625 232.417969 68.136719 231.730469 67.898438 C 231.042969 67.664062 230.332031 67.421875 229.613281 67.171875 C 226.742188 66.210938 223.78125 65.328125 222.316406 64.917969 C 219.59375 64.109375 215.300781 63.0625 210.421875 62.269531 C 205.546875 61.460938 200.085938 60.914062 195.121094 60.707031 C 190.15625 60.5 185.683594 60.597656 182.75 60.707031 C 182.015625 60.71875 181.382812 60.757812 180.859375 60.769531 C 180.332031 60.785156 179.921875 60.789062 179.636719 60.78125 C 179.070312 60.761719 179.015625 60.6875 179.605469 60.546875 C 179.667969 60.53125 179.457031 60.539062 179.039062 60.566406 C 178.617188 60.589844 177.984375 60.652344 177.207031 60.722656 C 176.421875 60.800781 175.492188 60.882812 174.472656 61.019531 C 173.453125 61.144531 172.34375 61.277344 171.210938 61.460938 C 170.640625 61.546875 170.066406 61.636719 169.492188 61.722656 C 168.917969 61.816406 168.347656 61.925781 167.78125 62.027344 C 167.214844 62.128906 166.660156 62.230469 166.117188 62.328125 C 165.578125 62.441406 165.054688 62.550781 164.550781 62.65625 C 164.046875 62.761719 163.570312 62.863281 163.121094 62.957031 C 162.671875 63.0625 162.253906 63.160156 161.875 63.253906 C 161.113281 63.433594 160.503906 63.585938 160.097656 63.691406 C 154.84375 65.117188 150.511719 66.609375 146.847656 68.003906 C 143.183594 69.40625 140.179688 70.6875 137.625 71.871094 C 137.304688 72.015625 136.988281 72.15625 136.679688 72.296875 C 136.375 72.441406 136.074219 72.585938 135.78125 72.726562 C 135.191406 73.003906 134.625 73.269531 134.078125 73.53125 C 132.992188 74.066406 131.984375 74.5625 131.027344 75.035156 C 130.082031 75.519531 129.1875 75.980469 128.316406 76.421875 C 127.460938 76.878906 126.632812 77.320312 125.8125 77.757812 C 125.503906 77.921875 124.683594 78.417969 123.574219 79.09375 C 123.015625 79.425781 122.40625 79.828125 121.742188 80.253906 C 121.082031 80.683594 120.375 81.132812 119.671875 81.625 C 118.964844 82.113281 118.238281 82.597656 117.539062 83.105469 C 116.839844 83.613281 116.15625 84.109375 115.507812 84.582031 C 114.867188 85.0625 114.273438 85.523438 113.742188 85.933594 C 113.476562 86.136719 113.226562 86.332031 113 86.507812 C 112.773438 86.695312 112.566406 86.863281 112.382812 87.011719 C 108.179688 90.457031 104.433594 93.886719 100.328125 98.25 C 98.28125 100.433594 96.128906 102.839844 93.871094 105.664062 C 91.609375 108.484375 89.207031 111.699219 86.695312 115.503906 C 87.128906 114.792969 87.53125 114.121094 87.917969 113.488281 C 88.304688 112.859375 88.683594 112.273438 89.039062 111.71875 C 89.738281 110.601562 90.402344 109.648438 90.988281 108.769531 C 91.28125 108.328125 91.566406 107.917969 91.84375 107.53125 C 92.121094 107.140625 92.382812 106.769531 92.636719 106.410156 C 93.140625 105.6875 93.632812 105.039062 94.105469 104.402344 C 87.148438 112.570312 81.269531 121.730469 76.636719 131.417969 C 74.335938 136.269531 72.339844 141.25 70.667969 146.308594 C 69.015625 151.375 67.660156 156.507812 66.644531 161.664062 C 65.636719 166.820312 64.9375 171.992188 64.535156 177.128906 C 64.148438 182.261719 64.058594 187.355469 64.230469 192.375 C 64.5625 202.421875 66.039062 212.164062 68.300781 221.328125 C 68.34375 221.515625 68.421875 221.820312 68.53125 222.21875 C 68.648438 222.617188 68.792969 223.113281 68.957031 223.679688 C 69.128906 224.242188 69.308594 224.886719 69.53125 225.566406 C 69.757812 226.25 69.996094 226.980469 70.242188 227.734375 C 71.261719 230.746094 72.558594 234.109375 73.539062 236.367188 C 74.714844 239.09375 75.964844 241.820312 77.339844 244.464844 L 77.847656 245.460938 L 78.375 246.445312 C 78.730469 247.097656 79.074219 247.753906 79.441406 248.402344 C 80.171875 249.6875 80.898438 250.972656 81.664062 252.21875 C 84.679688 257.238281 88.003906 261.859375 91.289062 265.957031 C 94.273438 269.648438 97.304688 272.984375 100.21875 275.933594 C 103.128906 278.886719 105.917969 281.445312 108.410156 283.621094 C 113.414062 287.953125 117.199219 290.769531 118.542969 292.085938 C 119.042969 292.566406 119.972656 293.34375 121.335938 294.304688 C 122.011719 294.789062 122.789062 295.335938 123.675781 295.90625 C 124.121094 296.191406 124.585938 296.492188 125.074219 296.808594 C 125.566406 297.117188 126.085938 297.425781 126.625 297.753906 C 128.785156 299.0625 131.351562 300.46875 134.269531 301.910156 C 137.1875 303.355469 140.476562 304.8125 144.085938 306.183594 C 144.726562 306.441406 145.382812 306.671875 146.035156 306.90625 C 146.6875 307.140625 147.335938 307.382812 147.992188 307.605469 C 149.3125 308.039062 150.625 308.5 151.960938 308.894531 C 154.613281 309.730469 157.308594 310.433594 160.003906 311.09375 C 160.683594 311.246094 161.359375 311.398438 162.035156 311.550781 L 163.046875 311.773438 L 164.066406 311.980469 C 164.742188 312.113281 165.421875 312.25 166.097656 312.382812 C 166.777344 312.5 167.453125 312.617188 168.132812 312.734375 L 169.148438 312.910156 L 170.164062 313.0625 C 170.839844 313.160156 171.515625 313.261719 172.191406 313.363281 C 172.867188 313.453125 173.546875 313.527344 174.21875 313.613281 C 174.890625 313.691406 175.5625 313.78125 176.238281 313.839844 C 181.613281 314.382812 186.910156 314.589844 192 314.476562 C 197.09375 314.355469 201.996094 313.9375 206.601562 313.285156 C 207.929688 313.113281 209.242188 312.882812 210.546875 312.671875 C 211.199219 312.570312 211.839844 312.433594 212.484375 312.3125 C 213.128906 312.191406 213.769531 312.070312 214.40625 311.941406 C 216.945312 311.398438 219.433594 310.824219 221.855469 310.148438 C 226.703125 308.828125 231.3125 307.273438 235.652344 305.503906 C 244.339844 301.976562 251.984375 297.730469 258.628906 293.1875 C 265.273438 288.640625 270.921875 283.804688 275.722656 279.011719 C 278.128906 276.617188 280.300781 274.210938 282.296875 271.855469 C 284.300781 269.503906 286.089844 267.171875 287.722656 264.910156 C 293.65625 256.71875 298.867188 247.296875 302.695312 237.480469 C 303.640625 235.023438 304.535156 232.554688 305.308594 230.066406 C 305.714844 228.832031 306.0625 227.582031 306.425781 226.34375 C 306.609375 225.726562 306.761719 225.097656 306.925781 224.480469 C 307.085938 223.859375 307.265625 223.242188 307.40625 222.621094 C 308.613281 217.660156 309.496094 212.753906 310.027344 208.015625 C 310.089844 207.410156 310.15625 206.789062 310.21875 206.164062 C 310.253906 205.855469 310.285156 205.539062 310.316406 205.226562 C 310.34375 204.910156 310.367188 204.59375 310.394531 204.273438 C 310.441406 203.640625 310.496094 203.003906 310.546875 202.367188 C 310.578125 201.730469 310.617188 201.09375 310.648438 200.464844 C 310.730469 199.207031 310.742188 197.964844 310.773438 196.785156 C 310.800781 195.601562 310.777344 194.472656 310.769531 193.429688 C 310.746094 192.386719 310.695312 191.433594 310.652344 190.597656 C 310.613281 189.765625 310.523438 189.046875 310.460938 188.484375 C 310.324219 187.355469 310.175781 186.828125 310.023438 187.160156 C 309.335938 188.605469 308.679688 191.984375 307.710938 195.859375 C 307.460938 196.835938 307.210938 197.832031 306.953125 198.84375 C 306.671875 199.851562 306.386719 200.871094 306.105469 201.886719 C 305.792969 202.894531 305.5 203.894531 305.179688 204.863281 C 304.851562 205.824219 304.539062 206.765625 304.207031 207.648438 C 303.992188 208.222656 303.738281 208.972656 303.476562 209.769531 C 303.207031 210.566406 302.90625 211.398438 302.636719 212.148438 C 302.484375 212.585938 302.320312 212.988281 302.164062 213.371094 C 302.003906 213.746094 301.851562 214.113281 301.699219 214.472656 C 301.402344 215.191406 301.085938 215.878906 300.742188 216.648438 C 300.398438 217.449219 300.03125 218.304688 299.597656 219.316406 C 299.175781 220.359375 298.640625 221.574219 298.023438 223.082031 C 297.253906 224.878906 295.835938 228.496094 293.925781 232.464844 C 292.046875 236.449219 289.621094 240.75 287.433594 244.160156 C 287.398438 244.496094 287.414062 244.746094 287.390625 245.0625 C 287.363281 245.371094 287.296875 245.742188 287.097656 246.324219 C 286.996094 246.605469 286.667969 247.289062 286.238281 248.058594 C 285.804688 248.828125 285.320312 249.714844 284.921875 250.40625 C 283.421875 252.5625 281.847656 254.628906 280.222656 256.667969 C 278.578125 258.699219 276.863281 260.683594 275.046875 262.65625 C 273.390625 264.441406 271.101562 266.753906 269.035156 268.675781 C 268.515625 269.148438 268.015625 269.605469 267.550781 270.03125 C 267.085938 270.460938 266.636719 270.835938 266.25 271.183594 C 265.859375 271.527344 265.519531 271.824219 265.246094 272.070312 C 264.964844 272.308594 264.753906 272.492188 264.617188 272.609375 C 262.875 274.203125 260.695312 275.984375 259.125 277.28125 C 257.53125 278.539062 256.566406 279.335938 257.230469 278.917969 C 258.097656 278.375 258.851562 277.917969 259.492188 277.527344 C 260.125 277.132812 260.648438 276.816406 261.074219 276.574219 C 261.929688 276.101562 262.367188 275.902344 262.480469 275.992188 C 262.703125 276.160156 261.589844 277.402344 259.519531 279.257812 C 257.453125 281.109375 254.402344 283.539062 250.765625 286.003906 C 247.132812 288.46875 242.925781 290.992188 238.660156 293.140625 C 231.039062 296.277344 223.753906 298.273438 217.238281 299.503906 C 213.980469 300.125 210.902344 300.53125 208.054688 300.8125 C 207.339844 300.875 206.644531 300.957031 205.960938 301 C 205.277344 301.046875 204.609375 301.09375 203.953125 301.136719 C 203.300781 301.1875 202.660156 301.195312 202.035156 301.222656 C 201.410156 301.246094 200.804688 301.28125 200.210938 301.285156 C 195.46875 301.371094 191.742188 301.121094 189.191406 300.828125 C 187.917969 300.679688 186.933594 300.511719 186.257812 300.375 C 185.578125 300.230469 185.210938 300.085938 185.167969 299.980469 C 185.101562 299.851562 189.5 299.867188 191.824219 299.703125 C 195.855469 299.804688 199.859375 299.699219 203.949219 299.363281 C 205.839844 299.203125 207.914062 298.980469 209.894531 298.699219 C 211.394531 298.382812 214.332031 297.699219 214.117188 297.644531 C 213.648438 297.523438 212.824219 297.484375 211.433594 297.542969 C 210.734375 297.558594 209.894531 297.597656 208.886719 297.667969 C 208.378906 297.695312 207.832031 297.726562 207.242188 297.757812 C 206.648438 297.792969 206.011719 297.84375 205.324219 297.871094 C 204.632812 297.90625 203.894531 297.941406 203.109375 297.984375 C 202.316406 298.011719 201.472656 298.042969 200.578125 298.074219 C 199.675781 298.09375 198.722656 298.113281 197.710938 298.132812 C 196.695312 298.132812 195.621094 298.128906 194.488281 298.128906 C 189.945312 298.054688 184.398438 297.785156 177.722656 296.808594 C 173.660156 296.710938 169.90625 296.414062 166.160156 295.9375 C 160.1875 294.179688 153.960938 291.703125 149.015625 289.21875 C 144.308594 286.863281 139.878906 284.136719 137.59375 282.390625 C 136.757812 281.742188 140.144531 283.484375 144.34375 285.460938 C 150.085938 288.140625 155.933594 290.304688 161.664062 291.933594 C 164.53125 292.746094 167.371094 293.429688 170.144531 294.007812 C 172.921875 294.578125 175.644531 295.011719 178.277344 295.375 C 178.933594 295.457031 179.589844 295.539062 180.234375 295.617188 C 180.882812 295.703125 181.523438 295.75 182.160156 295.820312 C 183.429688 295.964844 184.675781 296.039062 185.894531 296.140625 C 186.503906 296.1875 187.105469 296.207031 187.699219 296.246094 C 188.296875 296.273438 188.882812 296.320312 189.460938 296.332031 C 190.621094 296.363281 191.75 296.421875 192.847656 296.421875 C 197.230469 296.480469 201.074219 296.316406 204.226562 296.113281 C 204.65625 296.085938 205.097656 296.054688 205.550781 296.027344 C 206.003906 295.996094 206.472656 295.941406 206.957031 295.898438 C 207.4375 295.855469 207.9375 295.804688 208.457031 295.757812 C 208.972656 295.691406 209.507812 295.625 210.0625 295.558594 C 212.285156 295.292969 214.820312 294.898438 217.789062 294.3125 C 218.410156 294.0625 218.980469 293.839844 219.523438 293.609375 C 220.0625 293.378906 220.582031 293.152344 221.109375 292.925781 C 221.375 292.808594 221.644531 292.695312 221.914062 292.574219 C 222.1875 292.449219 222.464844 292.320312 222.753906 292.1875 C 223.332031 291.917969 223.957031 291.644531 224.644531 291.300781 C 225.382812 291.105469 226.054688 290.925781 226.675781 290.757812 C 227.292969 290.585938 227.851562 290.414062 228.375 290.265625 C 229.417969 289.96875 230.28125 289.679688 231.066406 289.433594 C 231.855469 289.1875 232.550781 288.941406 233.253906 288.6875 C 233.605469 288.5625 233.960938 288.433594 234.324219 288.300781 C 234.691406 288.171875 235.0625 288.015625 235.457031 287.859375 C 235.929688 287.671875 236.421875 287.476562 236.929688 287.269531 C 237.433594 287.054688 237.949219 286.832031 238.480469 286.601562 C 239.546875 286.152344 240.636719 285.621094 241.757812 285.105469 C 243.976562 284.019531 246.261719 282.84375 248.367188 281.640625 C 248.410156 281.5625 248.886719 281.246094 249.65625 280.726562 C 250.046875 280.472656 250.507812 280.171875 251.03125 279.832031 C 251.550781 279.484375 252.128906 279.09375 252.75 278.675781 C 255.234375 276.996094 258.367188 274.71875 261.175781 272.410156 C 263.988281 270.117188 266.472656 267.792969 267.914062 266.335938 C 269.339844 264.867188 269.777344 264.3125 268.421875 265.417969 C 267.484375 266.179688 267.144531 266.359375 266.820312 266.5 C 266.5 266.648438 266.207031 266.769531 265.367188 267.410156 C 264.953125 267.738281 264.375 268.164062 263.597656 268.796875 C 263.402344 268.957031 263.195312 269.125 262.972656 269.308594 C 262.746094 269.488281 262.503906 269.675781 262.246094 269.878906 C 261.726562 270.28125 261.15625 270.757812 260.492188 271.261719 C 260.15625 271.519531 259.808594 271.789062 259.4375 272.074219 C 259.25 272.21875 259.058594 272.363281 258.863281 272.515625 C 258.664062 272.664062 258.460938 272.8125 258.253906 272.96875 C 257.832031 273.277344 257.394531 273.605469 256.929688 273.949219 C 256.464844 274.289062 255.964844 274.632812 255.449219 275.003906 C 253.371094 276.464844 250.863281 278.160156 247.761719 280.003906 C 245.460938 281.371094 243.1875 282.558594 241.042969 283.605469 C 240.503906 283.855469 239.972656 284.101562 239.449219 284.339844 C 239.191406 284.460938 238.933594 284.578125 238.679688 284.695312 C 238.421875 284.804688 238.164062 284.914062 237.914062 285.019531 C 237.410156 285.234375 236.917969 285.441406 236.4375 285.644531 C 235.957031 285.839844 235.480469 286.019531 235.023438 286.199219 C 234.566406 286.371094 234.125 286.546875 233.691406 286.703125 C 233.257812 286.855469 232.839844 287.003906 232.4375 287.140625 C 232.035156 287.28125 231.644531 287.414062 231.277344 287.539062 C 230.902344 287.65625 230.546875 287.765625 230.207031 287.871094 C 228.859375 288.296875 227.78125 288.5625 227.058594 288.726562 C 224.511719 289.292969 221.585938 289.917969 218.128906 290.503906 C 214.667969 291.089844 210.675781 291.636719 206.023438 291.996094 C 205.441406 292.046875 204.847656 292.082031 204.246094 292.113281 C 203.640625 292.148438 203.03125 292.191406 202.40625 292.21875 C 201.15625 292.261719 199.863281 292.328125 198.527344 292.328125 C 197.191406 292.363281 195.808594 292.332031 194.382812 292.320312 C 193.667969 292.296875 192.941406 292.273438 192.207031 292.25 C 191.46875 292.226562 190.722656 292.171875 189.960938 292.136719 C 183.886719 291.769531 177.0625 290.902344 169.558594 289.027344 C 168.191406 288.683594 168.015625 288.550781 168.640625 288.59375 C 169.265625 288.628906 170.679688 288.875 172.523438 289.164062 C 172.972656 289.242188 173.546875 289.34375 174.214844 289.4375 C 174.882812 289.535156 175.636719 289.667969 176.457031 289.773438 C 177.277344 289.875 178.152344 290.011719 179.0625 290.105469 C 179.515625 290.15625 179.980469 290.207031 180.445312 290.257812 C 180.675781 290.285156 180.90625 290.308594 181.140625 290.335938 L 181.84375 290.394531 C 185.578125 290.746094 189.269531 290.867188 190.839844 290.898438 C 191.933594 290.953125 193.027344 290.941406 194.113281 290.957031 C 194.65625 290.96875 195.199219 290.949219 195.738281 290.945312 C 196.28125 290.933594 196.820312 290.9375 197.359375 290.917969 C 199.507812 290.839844 201.644531 290.738281 203.753906 290.535156 C 207.980469 290.160156 212.125 289.546875 216.183594 288.671875 C 220.246094 287.804688 224.238281 286.722656 228.140625 285.386719 C 232.046875 284.046875 235.878906 282.484375 239.632812 280.691406 C 248.273438 276.527344 256.183594 271.300781 263.378906 265.035156 C 264.402344 263.675781 267.695312 259.835938 265.605469 261.457031 C 264.394531 262.390625 262.082031 264.378906 259.183594 266.597656 C 256.292969 268.820312 252.820312 271.265625 249.457031 273.292969 C 248.78125 273.695312 246.160156 275.417969 243.441406 276.953125 C 240.734375 278.507812 237.953125 279.882812 237.316406 280.222656 C 233.96875 281.996094 231.039062 283.285156 228.445312 284.296875 C 225.851562 285.308594 223.597656 286.050781 221.527344 286.625 C 221.011719 286.769531 220.511719 286.917969 220.015625 287.042969 C 219.519531 287.167969 219.03125 287.285156 218.554688 287.402344 C 217.601562 287.648438 216.664062 287.824219 215.742188 288.019531 C 215.28125 288.121094 214.820312 288.199219 214.359375 288.28125 C 213.898438 288.363281 213.433594 288.445312 212.96875 288.527344 C 212.035156 288.683594 211.082031 288.816406 210.097656 288.964844 C 207.324219 289.34375 204.464844 289.625 201.542969 289.792969 C 200.8125 289.824219 200.078125 289.878906 199.339844 289.898438 C 198.597656 289.917969 197.855469 289.9375 197.109375 289.957031 C 196.363281 289.960938 195.613281 289.960938 194.859375 289.964844 C 194.105469 289.96875 193.347656 289.933594 192.589844 289.921875 C 186.511719 289.75 180.253906 289.078125 174.011719 287.761719 C 173.070312 287.566406 172.121094 287.347656 171.15625 287.140625 C 170.675781 287.023438 170.191406 286.90625 169.699219 286.789062 C 169.210938 286.667969 168.710938 286.558594 168.210938 286.421875 C 167.210938 286.160156 166.175781 285.902344 165.117188 285.589844 C 164.585938 285.4375 164.039062 285.300781 163.492188 285.128906 C 162.941406 284.960938 162.382812 284.789062 161.8125 284.617188 C 159.53125 283.894531 157.074219 283.058594 154.382812 282.011719 C 151.695312 280.957031 148.777344 279.6875 145.59375 278.09375 C 138.796875 274.671875 132.828125 270.757812 127.480469 266.527344 C 122.140625 262.289062 117.425781 257.71875 113.203125 252.820312 C 108.984375 247.910156 105.253906 242.667969 101.984375 236.972656 C 98.722656 231.273438 95.917969 225.121094 93.699219 218.367188 C 93.699219 218.367188 94.0625 219.5 94.066406 219.503906 " fill-opacity="1" fill-rule="nonzero"/></g><path fill="#fcfeff" d="M 282.984375 245.828125 C 284.953125 243.175781 286.847656 240.351562 288.574219 237.511719 C 290.304688 234.671875 291.859375 231.816406 293.214844 229.140625 C 293.441406 228.671875 293.273438 229.226562 292.980469 230.054688 C 292.671875 230.875 292.261719 231.960938 292.023438 232.589844 C 291.660156 233.328125 291.261719 234.164062 290.835938 235.007812 C 290.398438 235.847656 289.964844 236.714844 289.53125 237.511719 C 289.09375 238.304688 288.691406 239.050781 288.335938 239.660156 C 287.980469 240.265625 287.6875 240.746094 287.503906 241.03125 C 285.589844 243.984375 283.65625 246.636719 281.664062 249.136719 C 279.671875 251.636719 277.625 253.984375 275.433594 256.292969 C 278.15625 252.957031 280.671875 249.453125 282.984375 245.828125 " fill-opacity="1" fill-rule="nonzero"/><path fill="#fcfeff" d="M 101.964844 142.296875 C 101.773438 142.914062 101.367188 143.976562 101.46875 144.027344 C 101.554688 144.074219 102.144531 143.117188 102.519531 142.609375 C 101.605469 144.332031 100.710938 146.273438 99.875 148.113281 C 99.480469 149.039062 99.085938 149.933594 98.742188 150.777344 C 98.410156 151.625 98.074219 152.394531 97.8125 153.082031 C 97.335938 154.300781 96.960938 155.25 96.671875 155.984375 C 96.386719 156.707031 96.160156 157.191406 96.019531 157.503906 C 95.894531 157.769531 95.902344 157.585938 95.941406 157.277344 C 95.988281 156.972656 96.082031 156.542969 96.109375 156.3125 C 96.320312 155.6875 96.515625 155.0625 96.742188 154.445312 L 97.417969 152.59375 C 97.894531 151.367188 98.363281 150.140625 98.882812 148.933594 C 99.910156 146.515625 101.007812 144.128906 102.230469 141.804688 L 101.964844 142.296875 " fill-opacity="1" fill-rule="nonzero"/><path fill="#fcfeff" d="M 113.667969 252.113281 C 112.976562 251.449219 112.542969 250.980469 112.089844 250.53125 C 111.785156 250.109375 111.484375 249.664062 111.183594 249.21875 C 110.886719 248.777344 110.585938 248.332031 110.296875 247.902344 C 109.738281 247.023438 109.207031 246.210938 108.8125 245.523438 C 108.78125 245.472656 108.875 245.597656 109.046875 245.835938 C 109.226562 246.066406 109.484375 246.40625 109.78125 246.796875 C 110.078125 247.179688 110.394531 247.621094 110.722656 248.03125 C 111.050781 248.441406 111.363281 248.832031 111.613281 249.148438 C 111.972656 249.707031 112.355469 250.246094 112.707031 250.753906 C 113.0625 251.257812 113.378906 251.734375 113.667969 252.113281 " fill-opacity="1" fill-rule="nonzero"/><path fill="#fcfeff" d="M 102.230469 141.804688 C 101.941406 142.269531 101.53125 142.976562 101.199219 143.53125 C 100.882812 144.09375 100.632812 144.503906 100.644531 144.359375 C 100.65625 144.050781 101.664062 141.707031 102.304688 140.273438 C 102.617188 139.902344 103.238281 138.933594 103.144531 139.320312 C 103.046875 139.738281 102.257812 141.40625 101.894531 142.421875 C 101.964844 142.296875 102.230469 141.804688 102.230469 141.804688 " fill-opacity="1" fill-rule="nonzero"/><path fill="#fcfeff" d="M 93.699219 218.367188 C 93.699219 218.367188 94.0625 219.5 94.066406 219.503906 C 93.933594 219.015625 93.757812 218.355469 93.613281 217.800781 C 93.472656 217.242188 93.378906 216.792969 93.394531 216.738281 C 93.457031 216.570312 93.816406 217.503906 94.078125 217.953125 C 94.25 218.488281 94.457031 219.140625 94.675781 219.8125 C 94.90625 220.480469 95.144531 221.175781 95.363281 221.800781 C 95.574219 222.429688 95.796875 222.980469 95.941406 223.382812 C 96.015625 223.585938 96.078125 223.75 96.117188 223.859375 C 96.160156 223.972656 96.179688 224.039062 96.179688 224.039062 C 96.136719 224.207031 96.011719 224.164062 95.519531 223.136719 C 95.441406 222.976562 95.320312 222.703125 95.179688 222.355469 C 95.042969 222.003906 94.878906 221.585938 94.707031 221.136719 C 94.351562 220.238281 93.996094 219.199219 93.699219 218.367188 " fill-opacity="1" fill-rule="nonzero"/><path fill="#fcfeff" d="M 84.160156 203.695312 C 83.960938 199.113281 83.972656 194.925781 84.246094 193.824219 C 84.273438 193.707031 84.328125 193.996094 84.394531 194.542969 C 84.429688 194.816406 84.472656 195.152344 84.515625 195.535156 C 84.566406 195.917969 84.625 196.34375 84.683594 196.800781 C 84.742188 197.253906 84.796875 197.738281 84.867188 198.226562 C 84.941406 198.71875 85.019531 199.214844 85.089844 199.707031 C 85.230469 200.6875 85.40625 201.625 85.546875 202.378906 C 85.699219 204.101562 86.058594 206.578125 86.378906 208.59375 C 86.550781 209.597656 86.710938 210.484375 86.804688 211.113281 C 86.902344 211.738281 86.964844 212.09375 86.90625 212.042969 C 86.679688 211.8125 86.28125 210.710938 85.765625 209.175781 C 85.515625 208.40625 85.261719 207.527344 84.980469 206.597656 C 84.714844 205.667969 84.4375 204.6875 84.160156 203.695312 " fill-opacity="1" fill-rule="nonzero"/><path fill="#fcfeff" d="M 83.480469 153.230469 C 83.210938 154.011719 82.949219 154.761719 82.707031 155.457031 C 82.457031 156.152344 82.273438 156.804688 82.085938 157.371094 C 81.90625 157.933594 81.75 158.414062 81.628906 158.789062 C 81.515625 159.164062 81.425781 159.425781 81.371094 159.546875 C 81.304688 159.714844 81.410156 159.082031 81.601562 158.234375 C 81.796875 157.386719 82.042969 156.328125 82.210938 155.613281 C 82.445312 154.910156 82.757812 153.96875 83.023438 153.171875 C 83.308594 152.386719 83.542969 151.746094 83.609375 151.644531 C 83.816406 151.3125 83.574219 152.382812 83.480469 153.230469 " fill-opacity="1" fill-rule="nonzero"/><path fill="#fcfeff" d="M 98.53125 128.753906 C 98.589844 128.796875 98.722656 128.71875 98.6875 128.910156 C 98.625 129.253906 98.460938 129.757812 98.34375 130.191406 C 97.96875 130.554688 97.398438 131.265625 97.308594 131.148438 C 97.289062 131.117188 97.480469 130.722656 97.738281 130.214844 C 98 129.710938 98.347656 129.101562 98.59375 128.632812 C 98.648438 128.539062 98.53125 128.753906 98.53125 128.753906 " fill-opacity="1" fill-rule="nonzero"/><path fill="#fcfeff" d="M 153.867188 297.152344 C 157.429688 297.890625 161.011719 298.453125 164.585938 298.847656 C 161.007812 298.453125 157.429688 297.890625 153.867188 297.152344 " fill-opacity="1" fill-rule="nonzero"/><path fill="#fcfeff" d="M 143.964844 293.179688 C 147.496094 294.78125 151.113281 296.199219 154.789062 297.433594 C 154.144531 297.292969 153.617188 297.167969 152.832031 296.964844 C 151.671875 296.675781 150.347656 296.253906 149.089844 295.886719 C 148.5 295.59375 147.894531 295.292969 147.300781 295 C 147.003906 294.851562 146.710938 294.703125 146.425781 294.5625 C 146.148438 294.414062 145.875 294.269531 145.613281 294.128906 C 144.910156 293.746094 144.503906 293.492188 143.964844 293.179688 " fill-opacity="1" fill-rule="nonzero"/><g fill="#fcfeff" fill-opacity="1"><g transform="translate(146.125197, 189.181394)"><g><path d="M 18.71875 8.53125 C 16.101562 8.53125 13.832031 8.1875 11.90625 7.5 C 9.976562 6.8125 8.296875 5.519531 6.859375 3.625 C 7.179688 0.75 8.46875 -4.570312 10.71875 -12.34375 C 12.976562 -20.113281 15.429688 -28.082031 18.078125 -36.25 C 20.722656 -44.414062 22.566406 -49.875 23.609375 -52.625 C 24.398438 -54.707031 25.492188 -56.8125 26.890625 -58.9375 C 28.296875 -61.0625 29.976562 -62.125 31.9375 -62.125 C 33.050781 -62.125 34.296875 -61.664062 35.671875 -60.75 C 31.742188 -51.800781 27.804688 -41.117188 23.859375 -28.703125 C 19.910156 -16.296875 16.890625 -5.289062 14.796875 4.3125 C 15.910156 4.707031 17.539062 4.90625 19.6875 4.90625 C 26.414062 4.90625 32.769531 2.304688 38.75 -2.890625 C 44.726562 -8.085938 49.515625 -14.519531 53.109375 -22.1875 C 56.703125 -29.863281 58.5 -37.164062 58.5 -44.09375 C 58.5 -51.664062 56.601562 -57.296875 52.8125 -60.984375 C 49.019531 -64.679688 43.957031 -66.53125 37.625 -66.53125 C 33.375 -66.53125 29.550781 -65.757812 26.15625 -64.21875 C 22.757812 -62.6875 20.097656 -60.582031 18.171875 -57.90625 C 16.242188 -55.226562 15.28125 -52.222656 15.28125 -48.890625 C 15.28125 -47.128906 15.578125 -45.5625 16.171875 -44.1875 C 13.492188 -44.1875 11.515625 -44.757812 10.234375 -45.90625 C 8.960938 -47.050781 8.328125 -48.570312 8.328125 -50.46875 C 8.328125 -53.53125 9.796875 -56.628906 12.734375 -59.765625 C 15.671875 -62.898438 19.640625 -65.476562 24.640625 -67.5 C 29.640625 -69.53125 35.046875 -70.546875 40.859375 -70.546875 C 49.867188 -70.546875 56.515625 -68.03125 60.796875 -63 C 65.078125 -57.96875 67.21875 -51.335938 67.21875 -43.109375 C 67.21875 -34.035156 64.863281 -25.53125 60.15625 -17.59375 C 55.457031 -9.65625 49.351562 -3.316406 41.84375 1.421875 C 34.332031 6.160156 26.625 8.53125 18.71875 8.53125 Z M 18.71875 8.53125 "/></g></g></g><g fill="#fcfeff" fill-opacity="1"><g transform="translate(180.887982, 247.31852)"><g><path d="M 53.109375 8.53125 C 50.691406 8.53125 47.671875 6.601562 44.046875 2.75 C 40.421875 -1.101562 36.757812 -5.789062 33.0625 -11.3125 C 29.375 -16.832031 26.257812 -22.046875 23.71875 -26.953125 L 14.796875 1.859375 C 14.140625 3.953125 12.894531 5.289062 11.0625 5.875 C 9.238281 6.46875 6.957031 6.765625 4.21875 6.765625 C 5.394531 4.210938 6.550781 1.40625 7.6875 -1.65625 C 8.832031 -4.726562 10.550781 -9.664062 12.84375 -16.46875 C 19.039062 -34.625 24.164062 -49.253906 28.21875 -60.359375 C 28.28125 -60.554688 28.488281 -61.109375 28.84375 -62.015625 C 29.207031 -62.929688 29.390625 -63.785156 29.390625 -64.578125 C 29.390625 -65.816406 28.738281 -66.4375 27.4375 -66.4375 C 25.539062 -66.4375 23.675781 -65.472656 21.84375 -63.546875 C 20.019531 -61.617188 18.550781 -59.296875 17.4375 -56.578125 C 16.332031 -53.867188 15.78125 -51.535156 15.78125 -49.578125 C 15.78125 -48.078125 16.101562 -46.578125 16.75 -45.078125 C 14.070312 -45.078125 12.097656 -45.644531 10.828125 -46.78125 C 9.554688 -47.925781 8.921875 -49.476562 8.921875 -51.4375 C 8.921875 -54.25 10.0625 -57.140625 12.34375 -60.109375 C 14.632812 -63.085938 17.410156 -65.570312 20.671875 -67.5625 C 23.941406 -69.550781 26.914062 -70.546875 29.59375 -70.546875 C 33.1875 -70.546875 34.984375 -68.648438 34.984375 -64.859375 C 34.984375 -63.617188 34.753906 -62.316406 34.296875 -60.953125 L 27.046875 -37.4375 C 27.828125 -37.882812 30.078125 -39.546875 33.796875 -42.421875 C 39.359375 -46.734375 44.535156 -51.351562 49.328125 -56.28125 C 54.128906 -61.21875 58.097656 -66.070312 61.234375 -70.84375 C 61.953125 -70.1875 62.457031 -69.351562 62.75 -68.34375 C 63.050781 -67.332031 63.203125 -66.398438 63.203125 -65.546875 C 63.203125 -61.109375 59.523438 -55.800781 52.171875 -49.625 C 44.828125 -43.457031 36.453125 -37.367188 27.046875 -31.359375 C 30.503906 -25.992188 33.457031 -21.644531 35.90625 -18.3125 C 38.351562 -14.988281 41.4375 -11.445312 45.15625 -7.6875 C 48.882812 -3.9375 53.5625 0.09375 59.1875 4.40625 C 58.59375 5.519531 57.707031 6.484375 56.53125 7.296875 C 55.351562 8.117188 54.210938 8.53125 53.109375 8.53125 Z M 53.109375 8.53125 "/></g></g></g></svg>